<svg width="44" height="44" viewBox="0 0 44 44" fill="none" xmlns="http://www.w3.org/2000/svg">
<path d="M21.5047 11.9201C21.6695 11.912 21.8346 11.908 22 11.908C22.1653 11.908 22.3304 11.912 22.4952 11.9201L23.0194 1.24726C22.6803 1.23059 22.3403 1.22223 22 1.22223C21.6596 1.22223 21.3197 1.23059 20.9805 1.24726L21.5047 11.9201Z" fill="url(#paint0_linear_5105_1687)"/>
<path d="M19.5478 12.2104C19.8682 12.1301 20.1924 12.0656 20.5191 12.0172L18.9512 1.44712C18.2785 1.54691 17.6111 1.67966 16.9514 1.84491L19.5478 12.2104Z" fill="url(#paint1_linear_5105_1687)"/>
<path d="M23.4808 12.0172C23.8075 12.0656 24.1317 12.1301 24.4521 12.2104L27.0485 1.84491C26.3888 1.67967 25.7214 1.54691 25.0487 1.44712L23.4808 12.0172Z" fill="url(#paint2_linear_5105_1687)"/>
<path d="M18.1379 12.6761C18.2906 12.6129 18.4447 12.5535 18.6001 12.4979L15.0001 2.43682C14.6804 2.55124 14.3631 2.6736 14.0486 2.80384C13.7342 2.93409 13.4233 3.0719 13.1163 3.21711L17.6851 12.8769C17.8341 12.8064 17.9851 12.7394 18.1379 12.6761Z" fill="url(#paint3_linear_5105_1687)"/>
<path d="M25.3998 12.4979C25.5552 12.5535 25.7093 12.6129 25.862 12.6761C26.0148 12.7394 26.1658 12.8064 26.3149 12.8769L30.8836 3.21712C30.5766 3.0719 30.2657 2.93409 29.9513 2.80384C29.6369 2.6736 29.3195 2.55124 28.9998 2.43682L25.3998 12.4979Z" fill="url(#paint4_linear_5105_1687)"/>
<path d="M15.9881 13.894C16.2534 13.6972 16.5283 13.5136 16.8116 13.3438L11.318 4.17831C10.7347 4.52795 10.1689 4.90601 9.62263 5.31114L15.9881 13.894Z" fill="url(#paint5_linear_5105_1687)"/>
<path d="M27.1883 13.3438C27.4716 13.5136 27.7465 13.6972 28.0118 13.894L34.3773 5.31114C33.831 4.90601 33.2652 4.52795 32.6819 4.17832L27.1883 13.3438Z" fill="url(#paint6_linear_5105_1687)"/>
<path d="M14.8638 14.8639C14.9807 14.747 15.1003 14.633 15.2225 14.5223L8.04642 6.60469C7.79478 6.83278 7.5485 7.06725 7.30784 7.3079C7.06719 7.54856 6.83272 7.79484 6.60463 8.04648L14.5222 15.2226C14.633 15.1004 14.7469 14.9807 14.8638 14.8639Z" fill="url(#paint7_linear_5105_1687)"/>
<path d="M28.7774 14.5223C28.8996 14.633 29.0192 14.747 29.1361 14.8639C29.253 14.9807 29.3669 15.1004 29.4777 15.2226L37.3953 8.04648C37.1672 7.79484 36.9327 7.54856 36.6921 7.3079C36.4514 7.06725 36.2051 6.83278 35.9535 6.60469L28.7774 14.5223Z" fill="url(#paint8_linear_5105_1687)"/>
<path d="M13.3437 16.8117C13.5135 16.5283 13.6972 16.2535 13.8939 15.9882L5.31108 9.62269C4.90595 10.169 4.52789 10.7348 4.17826 11.3181L13.3437 16.8117Z" fill="url(#paint9_linear_5105_1687)"/>
<path d="M30.106 15.9882C30.3028 16.2535 30.4864 16.5283 30.6562 16.8117L39.8217 11.3181C39.472 10.7348 39.094 10.169 38.6888 9.62269L30.106 15.9882Z" fill="url(#paint10_linear_5105_1687)"/>
<path d="M12.6761 18.1379C12.7394 17.9852 12.8063 17.8342 12.8768 17.6851L3.21706 13.1164C3.07184 13.4234 2.93403 13.7342 2.80378 14.0487C2.67354 14.3631 2.55118 14.6804 2.43675 15.0002L12.4978 18.6001C12.5534 18.4448 12.6128 18.2907 12.6761 18.1379Z" fill="url(#paint11_linear_5105_1687)"/>
<path d="M31.1231 17.6851C31.1936 17.8342 31.2606 17.9852 31.3238 18.1379C31.3871 18.2907 31.4465 18.4448 31.5021 18.6001L41.5632 15.0002C41.4487 14.6804 41.3264 14.3632 41.1961 14.0487C41.0659 13.7342 40.9281 13.4234 40.7828 13.1164L31.1231 17.6851Z" fill="url(#paint12_linear_5105_1687)"/>
<path d="M12.0171 20.5192C12.0656 20.1924 12.1301 19.8683 12.2103 19.5478L1.84485 16.9514C1.67961 17.6111 1.54685 18.2785 1.44706 18.9513L12.0171 20.5192Z" fill="url(#paint13_linear_5105_1687)"/>
<path d="M31.7896 19.5478C31.8698 19.8683 31.9343 20.1924 31.9828 20.5192L42.5528 18.9513C42.453 18.2786 42.3203 17.6111 42.155 16.9514L31.7896 19.5478Z" fill="url(#paint14_linear_5105_1687)"/>
<path d="M11.9079 22C11.9079 21.8347 11.912 21.6696 11.92 21.5048L1.24719 20.9805C1.23053 21.3197 1.22217 21.6597 1.22217 22C1.22217 24.7286 1.7596 27.4304 2.80378 29.9513C3.84796 32.4722 5.37845 34.7627 7.30784 36.6921C9.23722 38.6215 11.5278 40.152 14.0486 41.1962C16.5695 42.2403 19.2714 42.7778 22 42.7778C24.7285 42.7778 27.4304 42.2403 29.9513 41.1962C32.4721 40.152 34.7627 38.6215 36.6921 36.6921C38.6214 34.7627 40.1519 32.4722 41.1961 29.9513C42.2403 27.4304 42.7777 24.7286 42.7777 22C42.7777 21.6597 42.7694 21.3197 42.7527 20.9805L32.0799 21.5048C32.0879 21.6696 32.092 21.8347 32.092 22C32.092 23.3253 31.831 24.6376 31.3238 25.8621C30.8166 27.0865 30.0733 28.199 29.1361 29.1362C28.199 30.0733 27.0864 30.8167 25.862 31.3239C24.6376 31.831 23.3253 32.0921 22 32.0921C20.6747 32.0921 19.3623 31.831 18.1379 31.3239C16.9135 30.8167 15.8009 30.0733 14.8638 29.1362C13.9266 28.199 13.1833 27.0865 12.6761 25.8621C12.1689 24.6376 11.9079 23.3253 11.9079 22Z" fill="url(#paint15_linear_5105_1687)"/>
<path d="M22.0015 11.9076C21.8361 11.9076 21.671 11.9116 21.5063 11.9198L21.3072 7.86667C21.7675 7.66812 22.2394 7.49138 22.7218 7.3378L22.4967 11.9198C22.3319 11.9116 22.1668 11.9076 22.0015 11.9076Z" fill="#005C57"/>
<path d="M24.2354 6.93998L23.4823 12.0168C23.809 12.0653 24.1332 12.1298 24.4536 12.2101L25.8355 6.69328C25.2933 6.74785 24.7595 6.8306 24.2354 6.93998Z" fill="#005C57"/>
<path d="M27.506 6.61566L25.4014 12.4975C25.5567 12.5531 25.7108 12.6125 25.8635 12.6758C26.0162 12.7391 26.1673 12.806 26.3164 12.8766L29.2267 6.7232C28.6619 6.65616 28.0878 6.61977 27.506 6.61566Z" fill="#005C57"/>
<path d="M30.972 7.03329L27.1898 13.3434C27.4731 13.5132 27.748 13.6969 28.0133 13.8937L32.7116 7.55874C32.1466 7.35064 31.5659 7.17472 30.972 7.03329Z" fill="#005C57"/>
<path d="M34.413 8.30568L28.7789 14.5219C28.9011 14.6327 29.0207 14.7466 29.1376 14.8635C29.2545 14.9804 29.3684 15.1 29.4792 15.2222L36.0423 9.27379C35.5212 8.91904 34.9772 8.59541 34.413 8.30568Z" fill="#005C57"/>
<path d="M37.5655 10.4566L30.1075 15.9878C30.3043 16.2531 30.4879 16.528 30.6577 16.8113L38.9491 11.8416C38.5176 11.3513 38.0554 10.8886 37.5655 10.4566Z" fill="#005C57"/>
<path d="M40.1606 13.4111L31.1246 17.6847C31.1951 17.8339 31.262 17.9848 31.3253 18.1376C31.3886 18.2903 31.448 18.4445 31.5036 18.5998L41.1696 15.1412C40.8703 14.5411 40.5328 13.9633 40.1606 13.4111Z" fill="#005C57"/>
<path d="M41.9496 17.0029L31.7911 19.5475C31.8713 19.8679 31.9358 20.1921 31.9843 20.5189L42.4794 18.962C42.3453 18.2923 42.1676 17.6382 41.9496 17.0029Z" fill="#005C57"/>
<path d="M42.746 20.9805L32.0814 21.5045C32.0894 21.6692 32.0935 21.8343 32.0935 21.9997C32.0935 23.325 31.8325 24.6373 31.3253 25.8617C30.8181 27.0862 30.0747 28.1987 29.1376 29.1358C28.2004 30.073 27.0879 30.8163 25.8635 31.3235C24.6391 31.8307 23.3267 32.0917 22.0014 32.0917C20.6761 32.0917 19.3638 31.8307 18.1394 31.3235C16.9149 30.8163 15.8024 30.073 14.8653 29.1358C13.9281 28.1987 13.1848 27.0862 12.6776 25.8617C12.4769 25.3773 12.3148 24.8792 12.1922 24.372C13.3329 31.7422 19.705 37.3841 27.3948 37.3841C35.8914 37.3841 42.7792 30.4963 42.7792 21.9997C42.7792 21.6572 42.768 21.3174 42.746 20.9805Z" fill="#005C57"/>
<path d="M12.1921 19.6275C12.1986 19.6008 12.2052 19.5742 12.2119 19.5475L12.205 19.5458C12.2006 19.573 12.1963 19.6002 12.1921 19.6275Z" fill="#005C57"/>
<path d="M12.3958 18.5627L12.4993 18.5997C12.5549 18.4445 12.6143 18.2903 12.6776 18.1376C12.7409 17.9848 12.8078 17.8339 12.8784 17.6847L12.6549 17.5791C12.5581 17.9026 12.4715 18.2306 12.3958 18.5627Z" fill="#005C57"/>
<path d="M12.9861 16.5961L13.3452 16.8113C13.515 16.528 13.6987 16.2531 13.8955 15.9878L13.3934 15.6155C13.2468 15.9366 13.1109 16.2636 12.9861 16.5961Z" fill="#005C57"/>
<path d="M13.8816 14.6402L14.5237 15.2222C14.6345 15.1 14.7484 14.9804 14.8653 14.8635C14.9822 14.7466 15.1018 14.6327 15.224 14.5219L14.4556 13.6741C14.2529 13.9884 14.0614 14.3107 13.8816 14.6402Z" fill="#005C57"/>
<path d="M15.1211 12.7226L15.9896 13.8937C16.2549 13.6969 16.5298 13.5132 16.8131 13.3434L15.8837 11.7928C15.6177 12.0925 15.3633 12.4027 15.1211 12.7226Z" fill="#005C57"/>
<path d="M16.7488 10.8937L17.6865 12.8766C17.8357 12.806 17.9866 12.7391 18.1394 12.6758C18.2921 12.6125 18.4462 12.5531 18.6015 12.4975L17.721 10.0367C17.3849 10.3087 17.0606 10.5947 16.7488 10.8937Z" fill="#005C57"/>
<path d="M18.8041 9.23528L19.5493 12.2101C19.8697 12.1298 20.1939 12.0653 20.5207 12.0168L19.9998 8.50584C19.5895 8.73116 19.1906 8.97468 18.8041 9.23528Z" fill="#005C57"/>
<defs>
<linearGradient id="paint0_linear_5105_1687" x1="-4.80339" y1="-3.55667" x2="40.3883" y2="42.7778" gradientUnits="userSpaceOnUse">
<stop offset="0.0363151" stop-color="#006D68"/>
<stop offset="0.524591" stop-color="#006D65"/>
<stop offset="1" stop-color="#00041F"/>
</linearGradient>
<linearGradient id="paint1_linear_5105_1687" x1="-4.80339" y1="-3.55667" x2="40.3883" y2="42.7778" gradientUnits="userSpaceOnUse">
<stop offset="0.0363151" stop-color="#006D68"/>
<stop offset="0.524591" stop-color="#006D65"/>
<stop offset="1" stop-color="#00041F"/>
</linearGradient>
<linearGradient id="paint2_linear_5105_1687" x1="-4.80339" y1="-3.55667" x2="40.3883" y2="42.7778" gradientUnits="userSpaceOnUse">
<stop offset="0.0363151" stop-color="#006D68"/>
<stop offset="0.524591" stop-color="#006D65"/>
<stop offset="1" stop-color="#00041F"/>
</linearGradient>
<linearGradient id="paint3_linear_5105_1687" x1="-4.80339" y1="-3.55667" x2="40.3883" y2="42.7778" gradientUnits="userSpaceOnUse">
<stop offset="0.0363151" stop-color="#006D68"/>
<stop offset="0.524591" stop-color="#006D65"/>
<stop offset="1" stop-color="#00041F"/>
</linearGradient>
<linearGradient id="paint4_linear_5105_1687" x1="-4.80339" y1="-3.55667" x2="40.3883" y2="42.7778" gradientUnits="userSpaceOnUse">
<stop offset="0.0363151" stop-color="#006D68"/>
<stop offset="0.524591" stop-color="#006D65"/>
<stop offset="1" stop-color="#00041F"/>
</linearGradient>
<linearGradient id="paint5_linear_5105_1687" x1="-4.80339" y1="-3.55667" x2="40.3883" y2="42.7778" gradientUnits="userSpaceOnUse">
<stop offset="0.0363151" stop-color="#006D68"/>
<stop offset="0.524591" stop-color="#006D65"/>
<stop offset="1" stop-color="#00041F"/>
</linearGradient>
<linearGradient id="paint6_linear_5105_1687" x1="-4.80339" y1="-3.55667" x2="40.3883" y2="42.7778" gradientUnits="userSpaceOnUse">
<stop offset="0.0363151" stop-color="#006D68"/>
<stop offset="0.524591" stop-color="#006D65"/>
<stop offset="1" stop-color="#00041F"/>
</linearGradient>
<linearGradient id="paint7_linear_5105_1687" x1="-4.80339" y1="-3.55667" x2="40.3883" y2="42.7778" gradientUnits="userSpaceOnUse">
<stop offset="0.0363151" stop-color="#006D68"/>
<stop offset="0.524591" stop-color="#006D65"/>
<stop offset="1" stop-color="#00041F"/>
</linearGradient>
<linearGradient id="paint8_linear_5105_1687" x1="-4.80339" y1="-3.55667" x2="40.3883" y2="42.7778" gradientUnits="userSpaceOnUse">
<stop offset="0.0363151" stop-color="#006D68"/>
<stop offset="0.524591" stop-color="#006D65"/>
<stop offset="1" stop-color="#00041F"/>
</linearGradient>
<linearGradient id="paint9_linear_5105_1687" x1="-4.80339" y1="-3.55667" x2="40.3883" y2="42.7778" gradientUnits="userSpaceOnUse">
<stop offset="0.0363151" stop-color="#006D68"/>
<stop offset="0.524591" stop-color="#006D65"/>
<stop offset="1" stop-color="#00041F"/>
</linearGradient>
<linearGradient id="paint10_linear_5105_1687" x1="-4.80339" y1="-3.55667" x2="40.3883" y2="42.7778" gradientUnits="userSpaceOnUse">
<stop offset="0.0363151" stop-color="#006D68"/>
<stop offset="0.524591" stop-color="#006D65"/>
<stop offset="1" stop-color="#00041F"/>
</linearGradient>
<linearGradient id="paint11_linear_5105_1687" x1="-4.80339" y1="-3.55667" x2="40.3883" y2="42.7778" gradientUnits="userSpaceOnUse">
<stop offset="0.0363151" stop-color="#006D68"/>
<stop offset="0.524591" stop-color="#006D65"/>
<stop offset="1" stop-color="#00041F"/>
</linearGradient>
<linearGradient id="paint12_linear_5105_1687" x1="-4.80339" y1="-3.55667" x2="40.3883" y2="42.7778" gradientUnits="userSpaceOnUse">
<stop offset="0.0363151" stop-color="#006D68"/>
<stop offset="0.524591" stop-color="#006D65"/>
<stop offset="1" stop-color="#00041F"/>
</linearGradient>
<linearGradient id="paint13_linear_5105_1687" x1="-4.80339" y1="-3.55667" x2="40.3883" y2="42.7778" gradientUnits="userSpaceOnUse">
<stop offset="0.0363151" stop-color="#006D68"/>
<stop offset="0.524591" stop-color="#006D65"/>
<stop offset="1" stop-color="#00041F"/>
</linearGradient>
<linearGradient id="paint14_linear_5105_1687" x1="-4.80339" y1="-3.55667" x2="40.3883" y2="42.7778" gradientUnits="userSpaceOnUse">
<stop offset="0.0363151" stop-color="#006D68"/>
<stop offset="0.524591" stop-color="#006D65"/>
<stop offset="1" stop-color="#00041F"/>
</linearGradient>
<linearGradient id="paint15_linear_5105_1687" x1="-4.80339" y1="-3.55667" x2="40.3883" y2="42.7778" gradientUnits="userSpaceOnUse">
<stop offset="0.0363151" stop-color="#006D68"/>
<stop offset="0.524591" stop-color="#006D65"/>
<stop offset="1" stop-color="#00041F"/>
</linearGradient>
</defs>
</svg>
